<svg width="72" height="71" viewBox="0 0 72 71" fill="none" xmlns="http://www.w3.org/2000/svg">
<path d="M36 71C55.8822 71 72 55.1061 72 35.5C72 15.8939 55.8822 0 36 0C16.1177 0 0 15.8939 0 35.5C0 55.1061 16.1177 71 36 71Z" fill="#FF0420"/>
<path d="M25.5063 44.9353C23.3627 44.9353 21.6065 44.4379 20.2375 43.4431C18.8864 42.4307 18.2109 40.9919 18.2109 39.1268C18.2109 38.736 18.256 38.2563 18.346 37.6879C18.5803 36.409 18.9135 34.8724 19.3458 33.0784C20.5707 28.1936 23.732 25.7512 28.8298 25.7512C30.2168 25.7512 31.4597 25.9821 32.5585 26.4439C33.6574 26.8879 34.522 27.563 35.1524 28.469C35.7828 29.357 36.0982 30.4229 36.0982 31.6662C36.0982 32.0393 36.0531 32.51 35.963 33.0784C35.6928 34.6593 35.3685 36.1959 34.9903 37.6879C34.3598 40.1215 33.27 41.9422 31.7209 43.1501C30.1717 44.3402 28.1003 44.9353 25.5063 44.9353ZM25.8846 41.0984C26.8934 41.0984 27.7489 40.8054 28.4515 40.2192C29.1721 39.633 29.6854 38.736 29.9916 37.5281C30.4059 35.8584 30.7212 34.4017 30.9374 33.1584C31.0094 32.7853 31.0454 32.4035 31.0454 32.0126C31.0454 30.3962 30.1897 29.5879 28.4786 29.5879C27.4697 29.5879 26.6051 29.881 25.8846 30.4672C25.1821 31.0535 24.6777 31.9505 24.3715 33.1584C24.0473 34.3485 23.723 35.8051 23.3988 37.5281C23.3267 37.8833 23.2907 38.2563 23.2907 38.6471C23.2907 40.2814 24.1554 41.0984 25.8846 41.0984Z" fill="white"/>
<path d="M37.3371 44.6689C37.139 44.6689 36.9858 44.6067 36.8778 44.4823C36.7876 44.3401 36.7607 44.1804 36.7967 44.0027L40.5254 26.6837C40.5614 26.4883 40.6605 26.3284 40.8226 26.204C40.9848 26.0798 41.1559 26.0176 41.336 26.0176H48.5233C50.5228 26.0176 52.1259 26.4261 53.3328 27.2432C54.5578 28.0604 55.1702 29.2415 55.1702 30.7869C55.1702 31.231 55.1162 31.6929 55.0081 32.1724C54.5578 34.2152 53.6481 35.7251 52.2791 36.7021C50.9281 37.679 49.0727 38.1675 46.713 38.1675H43.0653L41.8224 44.0027C41.7863 44.1981 41.6872 44.3579 41.5252 44.4823C41.3631 44.6067 41.1919 44.6689 41.0119 44.6689H37.3371ZM46.9022 34.4906C47.6586 34.4906 48.3161 34.2862 48.8745 33.8777C49.451 33.4692 49.8293 32.883 50.0094 32.1192C50.0634 31.8171 50.0905 31.5507 50.0905 31.3199C50.0905 30.8047 49.9374 30.4139 49.6311 30.1475C49.3248 29.8632 48.8025 29.7212 48.064 29.7212H44.8215L43.7948 34.4906H46.9022Z" fill="white"/>
</svg>
